<svg id="Layer_1" data-name="Layer 1" xmlns="http://www.w3.org/2000/svg" viewBox="0 0 103.65 70.73"><defs><style>.cls-1{fill:#251e8c;}</style></defs><path class="cls-1" d="M2199.69,480.45H2101.8a2.88,2.88,0,0,1-2.88-2.88v-.23a2.88,2.88,0,0,1,2.88-2.88h97.89a2.88,2.88,0,0,1,2.88,2.88v.23A2.88,2.88,0,0,1,2199.69,480.45Z" transform="translate(-2098.92 -409.72)"/><path class="cls-1" d="M2104.93,413.36v53.36a3.64,3.64,0,0,0,3.64,3.64h84.64a3.64,3.64,0,0,0,3.64-3.64V413.36a3.64,3.64,0,0,0-3.64-3.64h-84.64A3.63,3.63,0,0,0,2104.93,413.36Zm85.86,50.75H2111V416h79.79Z" transform="translate(-2098.92 -409.72)"/></svg>