<svg id="Layer_1" data-name="Layer 1" xmlns="http://www.w3.org/2000/svg" viewBox="0 0 91.93 69.45"><defs><style>.cls-1{fill:#251e8c;}</style></defs><path class="cls-1" d="M2189.57,409.71h-77.36a7.29,7.29,0,0,0-7.29,7.29v8.87a45.7,45.7,0,0,0,6.07,5.68c10,7.87,24.19,12.78,39.89,12.78s29.86-4.91,39.89-12.78a47,47,0,0,0,6.07-5.68V417A7.26,7.26,0,0,0,2189.57,409.71Zm-38.68,27.62c-15.71,0-29.87-4.91-39.89-12.79V419.6a3.64,3.64,0,0,1,3.64-3.64h72.5a3.64,3.64,0,0,1,3.64,3.64v4.94C2180.76,432.41,2166.6,437.33,2150.89,437.33Z" transform="translate(-2104.92 -400.9)"/><path class="cls-1" d="M2190.79,438.36v22.93a2.81,2.81,0,0,1-2.81,2.81h-74.16a2.81,2.81,0,0,1-2.81-2.81V438.36a3,3,0,0,0-3-3h0a3,3,0,0,0-3,3v25.1a6.89,6.89,0,0,0,6.89,6.89H2190a6.89,6.89,0,0,0,6.89-6.89v-25.1a3,3,0,0,0-3-3h0A3,3,0,0,0,2190.79,438.36Z" transform="translate(-2104.92 -400.9)"/><path class="cls-1" d="M2146.1,403.61c1.83-.11,3.82-.06,4.79,0s3-.09,4.79,0c1.45.09,2.28,1.95,2.74,3.52a1.24,1.24,0,0,0,1.16,1h0a1.33,1.33,0,0,0,1.18-1.7c-.48-2.06-1.58-5.27-3.75-5.4-2.33-.14-4.87-.08-6.1,0s-3.78-.11-6.1,0-3.27,3.34-3.75,5.4a1.33,1.33,0,0,0,1.18,1.7h0a1.25,1.25,0,0,0,1.16-1C2143.82,405.55,2144.66,403.7,2146.1,403.61Z" transform="translate(-2104.92 -400.9)"/></svg>