<svg id="Layer_1" data-name="Layer 1" xmlns="http://www.w3.org/2000/svg" viewBox="0 0 132.22 123.64"><defs><style>.cls-1{fill:#ffd200;}.cls-2{fill:none;stroke:#ffd200;stroke-miterlimit:10;stroke-width:6px;}.cls-3{fill:#07c1db;}</style></defs><path class="cls-1" d="M2151.39,376a28.53,28.53,0,1,0,28.53,28.53A28.53,28.53,0,0,0,2151.39,376Zm0,50.95a22.42,22.42,0,1,1,22.42-22.42A22.42,22.42,0,0,1,2151.39,426.93Z" transform="translate(-2098 -375.98)"/><path class="cls-2" d="M2100.68,478.83s21-41.41,73.14-26" transform="translate(-2098 -375.98)"/><path class="cls-3" d="M2208,481.37l-4.33,3.45-.42.34-11.36-14.26,4.75-3.78,7.57,9.51L2225,460.09a24.38,24.38,0,1,0,3.17,5.25Z" transform="translate(-2098 -375.98)"/></svg>